<?xml version="1.0" encoding="UTF-8" standalone="no"?><!DOCTYPE svg PUBLIC "-//W3C//DTD SVG 1.1//EN" "http://www.w3.org/Graphics/SVG/1.1/DTD/svg11.dtd"><svg width="100%" height="100%" viewBox="0 0 706 218" version="1.1" xmlns="http://www.w3.org/2000/svg" xmlns:xlink="http://www.w3.org/1999/xlink" xml:space="preserve" style="fill-rule:evenodd;clip-rule:evenodd;stroke-linejoin:round;stroke-miterlimit:1.41421;"><g><path d="M95.155,146.176l42.356,-42.707c6.812,-6.878 6.516,-17.483 -0.296,-23.789c-7.109,-6.592 -18.068,-6.306 -24.585,0.287l-41.763,41.846l-40.875,-41.273c-6.812,-6.592 -17.772,-6.879 -24.584,-0.287c-7.109,6.306 -7.109,16.911 -0.592,23.79l42.059,42.133l-41.763,41.846c-6.813,6.592 -6.517,17.197 0.296,23.789c3.554,3.153 7.997,4.586 12.144,4.586c4.739,0 9.182,-1.72 12.44,-5.159l40.875,-40.986l41.467,41.559c3.555,3.44 7.997,5.159 12.44,5.159c4.443,0 8.886,-1.433 12.144,-4.585c6.813,-6.593 7.109,-17.198 0.593,-23.79l-42.356,-42.419Z" style="fill:url(#_Linear1);fill-rule:nonzero;"/><path d="M186.383,49.585c-10.367,0 -18.66,-8.025 -18.66,-17.484l0,-1.433c0,-10.031 8.293,-17.77 18.66,-17.77c9.774,0 18.068,7.739 18.068,17.77l0,1.433c0,9.459 -8.294,17.484 -18.068,17.484Zm0,168.245c-10.367,0 -18.66,-8.025 -18.66,-17.77l0,-110.635c0,-9.745 8.293,-17.484 18.66,-17.484c9.774,0 18.068,7.739 18.068,17.484l0,110.635c0,9.745 -8.294,17.77 -18.068,17.77Z" style="fill:url(#_Linear2);fill-rule:nonzero;"/><path d="M298.344,217.257l-0.296,0c-6.516,0 -12.44,-3.726 -15.402,-9.458l-55.685,-107.482c-4.146,-8.599 -0.888,-18.631 7.998,-22.93c8.589,-4.013 18.956,-0.86 23.399,7.739l39.986,77.387l39.987,-75.381c4.443,-8.312 14.809,-11.751 23.399,-7.452c8.59,4.299 12.144,14.331 7.701,22.643l-55.685,105.476c-2.961,5.732 -8.885,9.458 -15.402,9.458Z" style="fill:url(#_Linear3);fill-rule:nonzero;"/><path d="M514.566,0.287c-9.774,0 -17.771,8.025 -17.771,17.483l0,67.069c-12.144,-7.452 -26.362,-12.038 -41.764,-12.038c-41.171,0 -74.937,32.675 -74.937,72.515c0,40.126 33.766,72.514 74.937,72.514c15.699,0 30.508,-4.586 42.356,-12.611c2.37,7.166 9.182,12.038 17.179,12.038c10.071,0 18.068,-7.739 18.068,-17.197l0,-182.29c0,-9.458 -7.997,-17.483 -18.068,-17.483Zm-59.535,182.862c-21.622,0 -39.097,-16.91 -39.097,-37.833c0,-20.923 17.475,-37.834 39.097,-37.834c21.622,0 39.098,16.911 39.098,37.834c0,20.923 -17.476,37.833 -39.098,37.833Z" style="fill:url(#_Linear4);fill-rule:nonzero;"/><path d="M630.971,72.515c-15.402,0 -29.62,4.585 -41.764,12.038l0,-67.069c0,-9.459 -7.997,-17.484 -17.771,-17.484c-10.071,0 -18.068,8.025 -18.068,17.484l0,182.289c0,9.459 7.997,17.197 18.068,17.197c7.997,0 14.809,-5.159 17.179,-12.038c11.848,8.026 26.658,12.612 42.356,12.612c41.171,0 74.937,-32.388 74.937,-72.515c0,-40.127 -33.766,-72.514 -74.937,-72.514Zm0,110.348c-21.622,0 -39.098,-16.911 -39.098,-37.834c0,-20.923 17.476,-37.834 39.098,-37.834c21.326,0 39.098,16.911 39.098,37.834c0,20.923 -17.772,37.834 -39.098,37.834Z" style="fill:url(#_Linear5);fill-rule:nonzero;"/></g><defs><linearGradient id="_Linear1" x1="0" y1="0" x2="1" y2="0" gradientUnits="userSpaceOnUse" gradientTransform="matrix(723.603,0,0,289.796,-10.2903,145.184)"><stop offset="0" style="stop-color:#1b78fa;stop-opacity:1"/><stop offset="0.52" style="stop-color:#a43991;stop-opacity:1"/><stop offset="1" style="stop-color:#d6226a;stop-opacity:1"/></linearGradient><linearGradient id="_Linear2" x1="0" y1="0" x2="1" y2="0" gradientUnits="userSpaceOnUse" gradientTransform="matrix(723.603,0,0,289.796,-10.2903,145.184)"><stop offset="0" style="stop-color:#1b78fa;stop-opacity:1"/><stop offset="0.52" style="stop-color:#a43991;stop-opacity:1"/><stop offset="1" style="stop-color:#d6226a;stop-opacity:1"/></linearGradient><linearGradient id="_Linear3" x1="0" y1="0" x2="1" y2="0" gradientUnits="userSpaceOnUse" gradientTransform="matrix(723.603,0,0,289.796,-10.2903,145.184)"><stop offset="0" style="stop-color:#1b78fa;stop-opacity:1"/><stop offset="0.52" style="stop-color:#a43991;stop-opacity:1"/><stop offset="1" style="stop-color:#d6226a;stop-opacity:1"/></linearGradient><linearGradient id="_Linear4" x1="0" y1="0" x2="1" y2="0" gradientUnits="userSpaceOnUse" gradientTransform="matrix(723.603,0,0,289.796,-10.2903,145.184)"><stop offset="0" style="stop-color:#1b78fa;stop-opacity:1"/><stop offset="0.52" style="stop-color:#a43991;stop-opacity:1"/><stop offset="1" style="stop-color:#d6226a;stop-opacity:1"/></linearGradient><linearGradient id="_Linear5" x1="0" y1="0" x2="1" y2="0" gradientUnits="userSpaceOnUse" gradientTransform="matrix(723.603,0,0,289.796,-10.2903,145.184)"><stop offset="0" style="stop-color:#1b78fa;stop-opacity:1"/><stop offset="0.52" style="stop-color:#a43991;stop-opacity:1"/><stop offset="1" style="stop-color:#d6226a;stop-opacity:1"/></linearGradient></defs></svg>