<?xml version="1.0" encoding="UTF-8" standalone="no"?><!DOCTYPE svg PUBLIC "-//W3C//DTD SVG 1.1//EN" "http://www.w3.org/Graphics/SVG/1.1/DTD/svg11.dtd"><svg width="100%" height="100%" viewBox="0 0 705 218" version="1.1" xmlns="http://www.w3.org/2000/svg" xmlns:xlink="http://www.w3.org/1999/xlink" xml:space="preserve" style="fill-rule:evenodd;clip-rule:evenodd;stroke-linejoin:round;stroke-miterlimit:1.41421;"><g><path d="M95.023,145.974l42.298,-42.648c6.803,-6.869 6.507,-17.459 -0.296,-23.756c-7.099,-6.583 -18.043,-6.297 -24.55,0.286l-41.706,41.789l-40.818,-41.216c-6.803,-6.584 -17.747,-6.87 -24.551,-0.287c-7.098,6.297 -7.098,16.888 -0.591,23.757l42.001,42.075l-41.705,41.788c-6.803,6.583 -6.508,17.173 0.295,23.757c3.55,3.148 7.987,4.579 12.128,4.579c4.732,0 9.169,-1.717 12.423,-5.152l40.818,-40.93l41.41,41.503c3.549,3.434 7.986,5.152 12.423,5.152c4.437,0 8.873,-1.432 12.127,-4.58c6.803,-6.583 7.099,-17.173 0.592,-23.756l-42.298,-42.361Z" style="fill:#fff;fill-rule:nonzero;"/><path d="M186.125,49.517c-10.352,0 -18.634,-8.015 -18.634,-17.46l0,-1.431c0,-10.018 8.282,-17.746 18.634,-17.746c9.761,0 18.043,7.728 18.043,17.746l0,1.431c0,9.445 -8.282,17.46 -18.043,17.46Zm0,168.012c-10.352,0 -18.634,-8.014 -18.634,-17.746l0,-110.482c0,-9.731 8.282,-17.459 18.634,-17.459c9.761,0 18.043,7.728 18.043,17.459l0,110.482c0,9.732 -8.282,17.746 -18.043,17.746Z" style="fill:#fff;fill-rule:nonzero;"/><path d="M297.932,216.957l-0.296,0c-6.507,0 -12.423,-3.721 -15.381,-9.446l-55.607,-107.333c-4.141,-8.587 -0.888,-18.605 7.986,-22.898c8.578,-4.007 18.93,-0.859 23.367,7.728l39.931,77.28l39.931,-75.276c4.437,-8.301 14.789,-11.735 23.367,-7.442c8.578,4.293 12.127,14.311 7.691,22.612l-55.608,105.329c-2.958,5.725 -8.874,9.446 -15.381,9.446Z" style="fill:#fff;fill-rule:nonzero;"/><path d="M513.855,0.286c-9.761,0 -17.747,8.014 -17.747,17.46l0,66.976c-12.127,-7.442 -26.325,-12.021 -41.706,-12.021c-41.114,0 -74.833,32.629 -74.833,72.414c0,40.071 33.719,72.414 74.833,72.414c15.677,0 30.466,-4.579 42.298,-12.594c2.366,7.156 9.169,12.022 17.155,12.022c10.057,0 18.043,-7.728 18.043,-17.174l0,-182.037c0,-9.446 -7.986,-17.46 -18.043,-17.46Zm-59.453,182.61c-21.592,0 -39.043,-16.887 -39.043,-37.781c0,-20.894 17.451,-37.781 39.043,-37.781c21.593,0 39.044,16.887 39.044,37.781c0,20.894 -17.451,37.781 -39.044,37.781Z" style="fill:#fff;fill-rule:nonzero;"/><path d="M630.099,72.414c-15.381,0 -29.579,4.58 -41.706,12.022l0,-66.976c0,-9.446 -7.986,-17.46 -17.747,-17.46c-10.057,0 -18.043,8.014 -18.043,17.46l0,182.037c0,9.446 7.986,17.174 18.043,17.174c7.986,0 14.789,-5.152 17.156,-12.022c11.831,8.014 26.62,12.594 42.297,12.594c41.114,0 74.834,-32.343 74.834,-72.414c0,-40.071 -33.72,-72.415 -74.834,-72.415Zm0,110.196c-21.592,0 -39.044,-16.887 -39.044,-37.781c0,-20.895 17.452,-37.782 39.044,-37.782c21.296,0 39.044,16.887 39.044,37.782c0,20.894 -17.748,37.781 -39.044,37.781Z" style="fill:#fff;fill-rule:nonzero;"/></g></svg>