<?xml version="1.0" encoding="UTF-8" standalone="no"?><!DOCTYPE svg PUBLIC "-//W3C//DTD SVG 1.1//EN" "http://www.w3.org/Graphics/SVG/1.1/DTD/svg11.dtd"><svg width="100%" height="100%" viewBox="0 0 197 218" version="1.1" xmlns="http://www.w3.org/2000/svg" xmlns:xlink="http://www.w3.org/1999/xlink" xml:space="preserve" style="fill-rule:evenodd;clip-rule:evenodd;stroke-linejoin:round;stroke-miterlimit:1.41421;"><g><path d="M17.772,217.544c-9.775,0 -17.772,-7.739 -17.772,-17.484l0,-182.576c0,-9.745 7.997,-17.484 17.772,-17.484c10.07,0 18.068,7.739 18.068,17.484l0,182.576c0,9.745 -7.998,17.484 -18.068,17.484Z" style="fill:url(#_Linear1);fill-rule:nonzero;"/><path d="M98.04,217.544c-9.774,0 -17.771,-7.739 -17.771,-17.484l0,-182.576c0,-9.745 7.997,-17.484 17.771,-17.484c10.071,0 18.068,7.739 18.068,17.484l0,182.576c0,9.745 -7.997,17.484 -18.068,17.484Z" style="fill:url(#_Linear2);fill-rule:nonzero;"/><path d="M178.309,217.544c-9.774,0 -17.772,-7.739 -17.772,-17.484l0,-182.576c0,-9.745 7.998,-17.484 17.772,-17.484c10.071,0 18.068,7.739 18.068,17.484l0,182.576c0,9.745 -7.997,17.484 -18.068,17.484Z" style="fill:url(#_Linear3);fill-rule:nonzero;"/></g><defs><linearGradient id="_Linear1" x1="0" y1="0" x2="1" y2="0" gradientUnits="userSpaceOnUse" gradientTransform="matrix(723.603,0,0,289.796,-22.2146,145.184)"><stop offset="0" style="stop-color:#1b78fa;stop-opacity:1"/><stop offset="0.52" style="stop-color:#a43991;stop-opacity:1"/><stop offset="1" style="stop-color:#d6226a;stop-opacity:1"/></linearGradient><linearGradient id="_Linear2" x1="0" y1="0" x2="1" y2="0" gradientUnits="userSpaceOnUse" gradientTransform="matrix(723.603,0,0,289.796,-22.2146,145.184)"><stop offset="0" style="stop-color:#1b78fa;stop-opacity:1"/><stop offset="0.52" style="stop-color:#a43991;stop-opacity:1"/><stop offset="1" style="stop-color:#d6226a;stop-opacity:1"/></linearGradient><linearGradient id="_Linear3" x1="0" y1="0" x2="1" y2="0" gradientUnits="userSpaceOnUse" gradientTransform="matrix(723.603,0,0,289.796,-22.2146,145.184)"><stop offset="0" style="stop-color:#1b78fa;stop-opacity:1"/><stop offset="0.52" style="stop-color:#a43991;stop-opacity:1"/><stop offset="1" style="stop-color:#d6226a;stop-opacity:1"/></linearGradient></defs></svg>